<svg width="147" height="22" viewBox="0 0 147 22" fill="none" xmlns="http://www.w3.org/2000/svg">
<g clip-path="url(#clip0_1_5303)">
<mask id="mask0_1_5303" style="mask-type:luminance" maskUnits="userSpaceOnUse" x="20" y="1" width="18" height="21">
<path d="M27.155 5.63748C28.5947 5.65257 29.9703 6.23692 30.9831 7.26358C31.9959 8.29025 32.5639 9.67631 32.5639 11.1207C32.5639 12.5651 31.9959 13.9512 30.9831 14.9778C29.9703 16.0045 28.5947 16.5888 27.155 16.6039C23.4922 16.6039 23.2169 15.8965 20.113 19.3936C22.0743 21.0789 24.5726 22.0036 27.155 22C33.1442 22 38 17.1287 38 11.1204C38.0006 9.17798 37.4826 7.27084 36.5 5.59716C35.5173 3.92347 34.1058 2.54432 32.4121 1.60301C22.3063 0.00179759 21.1061 8.82552 22.2245 9.09448C22.8061 7.14584 24.0051 5.63748 27.155 5.63748Z" fill="white"/>
</mask>
<g mask="url(#mask0_1_5303)">
<path d="M37.9994 0H20.113V22H37.9994V0Z" fill="url(#paint0_linear_1_5303)"/>
</g>
<mask id="mask1_1_5303" style="mask-type:luminance" maskUnits="userSpaceOnUse" x="20" y="10" width="16" height="11">
<path d="M32.5249 10.0955C32.6746 10.8882 32.6482 11.7042 32.4476 12.4855C32.247 13.2667 31.8772 13.994 31.3644 14.6155C30.8516 15.237 30.2085 15.7374 29.4809 16.0811C28.7534 16.4248 27.9592 16.6033 27.155 16.6039C23.5758 16.6039 23.2306 15.9294 20.3196 19.1624L21.0063 20.0825C21.0189 20.0825 33.3221 20.8049 34.9994 13.3602C35.43 11.4481 34.3557 10.4801 32.5243 10.0949" fill="white"/>
</mask>
<g mask="url(#mask1_1_5303)">
<path d="M35.4305 10.0955H20.3196V20.8062H35.4305V10.0955Z" fill="url(#paint1_linear_1_5303)"/>
</g>
<mask id="mask2_1_5303" style="mask-type:luminance" maskUnits="userSpaceOnUse" x="6" y="0" width="27" height="19">
<path d="M16.7017 8.2151C15.6268 12.1088 16.5858 16.6015 10.8444 16.6015C8.90198 16.6015 7.08254 15.5646 6.11459 14.0329C7.09209 16.8957 10.4408 20.6755 19.919 17.0784C20.7679 15.7771 21.329 14.3084 21.5647 12.7713C21.7528 11.5373 21.8817 10.2386 22.2245 9.09208C22.2245 9.09208 24.0875 0.426501 32.4121 1.6006C30.9774 0.80431 29.3814 0.344516 27.7441 0.25576C26.1068 0.167004 24.4708 0.451592 22.9589 1.08815C21.447 1.7247 20.0985 2.69667 19.0148 3.93105C17.931 5.16543 17.1402 6.63012 16.7017 8.2151Z" fill="white"/>
</mask>
<g mask="url(#mask2_1_5303)">
<path d="M32.4121 0.241394H6.11459V20.6779H32.4121V0.241394Z" fill="url(#paint2_linear_1_5303)"/>
</g>
<mask id="mask3_1_5303" style="mask-type:luminance" maskUnits="userSpaceOnUse" x="0" y="0" width="20" height="22">
<path d="M19.919 17.0808C14.9879 18.4963 6.8807 18.7419 5.50014 12.2748C5.32948 11.4751 5.33913 10.6472 5.52837 9.85177C5.71761 9.0563 6.08167 8.31331 6.59392 7.67713C7.10617 7.04094 7.75368 6.52764 8.48909 6.17475C9.2245 5.82186 10.0292 5.63831 10.8444 5.6375C14.8022 5.6375 13.5393 7.74549 17.8864 2.84782C15.9251 1.16243 13.4269 0.237765 10.8444 0.241435C4.85584 0.241435 0 5.11275 0 11.1204C0 17.1281 4.85584 22 10.8444 22C12.6451 21.9986 14.4173 21.5483 16.0015 20.6897C17.5858 19.831 18.9326 18.5909 19.9208 17.0808" fill="white"/>
</mask>
<g mask="url(#mask3_1_5303)">
<path d="M19.919 0.241425H0V22H19.919V0.241425Z" fill="url(#paint3_linear_1_5303)"/>
</g>
<path fill-rule="evenodd" clip-rule="evenodd" d="M2.60766 12.7899C1.0814 4.50713 11.0869 -0.220414 17.8864 2.84602C15.9249 1.16129 13.4266 0.237268 10.8444 0.241439C4.85584 0.241439 0 5.11276 0 11.1204C0 17.1281 4.85584 22 10.8444 22C12.3615 22.0022 13.862 21.6838 15.2482 21.0655C6.43942 21.425 3.31883 16.6483 2.60766 12.7899Z" fill="#F1C30F"/>
<path fill-rule="evenodd" clip-rule="evenodd" d="M13.9507 17.899C18.8328 17.7475 18.5653 10.1056 20.1572 6.65582C21.5294 3.68403 24.8405 -0.386385 32.4121 1.603C30.9775 0.806678 29.3817 0.346796 27.7446 0.257891C26.1074 0.168986 24.4715 0.453367 22.9596 1.08968C21.4477 1.72599 20.0992 2.69769 19.0154 3.93179C17.9315 5.16589 17.1405 6.63033 16.7017 8.2151C15.6268 12.1088 16.5858 16.6015 10.8444 16.6015C8.90198 16.6015 7.08254 15.5646 6.11459 14.0329C7.55606 16.8555 10.7059 17.8421 13.9507 17.8966" fill="#FA5C98"/>
<path fill-rule="evenodd" clip-rule="evenodd" d="M27.155 5.63746C28.5947 5.65256 29.9703 6.2369 30.9831 7.26357C31.9959 8.29023 32.5639 9.6763 32.5639 11.1207C32.5639 12.5651 31.9959 13.9511 30.9831 14.9778C29.9703 16.0045 28.5947 16.5888 27.155 16.6039C23.4922 16.6039 23.2169 15.8965 20.113 19.3936C27.057 20.6048 37.342 17.7049 34.9111 8.83089C33.9694 5.39306 30.4535 3.16646 25.8168 3.21798C23.0055 5.46075 22.2245 9.09447 22.2245 9.09447C22.8061 7.14582 24.0051 5.63746 27.155 5.63746Z" fill="#3E6BBD"/>
<path fill-rule="evenodd" clip-rule="evenodd" d="M27.7545 3.33539C29.7674 1.71801 32.4121 1.60299 32.4121 1.60299C29.4784 1.18906 27.3472 1.99775 25.8168 3.22037C23.0055 5.46314 22.2245 9.09686 22.2245 9.09686C22.7279 7.40999 23.694 6.05319 25.9864 5.71893C26.3575 4.78276 26.9672 3.96082 27.7545 3.33539Z" fill="#004790"/>
<path fill-rule="evenodd" clip-rule="evenodd" d="M16.2711 17.0424C15.2148 16.9316 14.0701 16.7136 13.0466 16.305C12.4495 16.4979 11.7264 16.6045 10.8456 16.6045C8.90318 16.6045 7.08373 15.5676 6.11578 14.0359C7.55725 16.8585 10.7071 17.8451 13.9519 17.8996C16.0466 17.9344 18.1807 17.5804 19.9202 17.0814C18.7056 17.1803 17.4846 17.1675 16.2723 17.043" fill="#5E147D"/>
<path fill-rule="evenodd" clip-rule="evenodd" d="M17.1973 2.30147C17.1973 2.30147 15.4429 1.37956 12.4955 1.63834C10.0831 1.8504 5.80765 3.38991 4.74118 5.43979C7.85281 2.11757 13.5285 0.881169 17.8863 2.84779C17.6634 2.6569 17.4329 2.47479 17.1949 2.30147" fill="#FDE3A7"/>
<path fill-rule="evenodd" clip-rule="evenodd" d="M31.5003 1.15014C29.6593 0.816475 27.8536 0.741596 26.0533 1.26994C25.3743 1.46882 24.4715 1.81925 23.731 2.4081C25.6908 1.1729 28.4752 0.569075 32.4121 1.6036C32.1167 1.43907 31.8128 1.28811 31.5003 1.15073" fill="#FFBCD8"/>
<path fill-rule="evenodd" clip-rule="evenodd" d="M22.1009 20.1011C25.1528 20.0753 33.6254 19.4481 34.9988 13.3608C33.4911 18.5454 26.0945 20.2802 20.5412 19.4631C20.3967 19.4415 20.2528 19.4182 20.1107 19.3936C20.3971 19.6386 20.6961 19.8686 21.0063 20.0825C21.0063 20.0825 21.4196 20.1065 22.1003 20.1005" fill="#FFBCD8"/>
</g>
<g clip-path="url(#clip1_1_5303)">
<path d="M58 18.7814V3.85287H61.1687V16.1789H67.5955V18.7814H58Z" fill="white"/>
<path d="M71.2032 6.14157C70.7617 6.15024 70.3345 5.98541 70.0141 5.68275C69.8583 5.54238 69.7338 5.37098 69.6487 5.17965C69.5636 4.98832 69.5198 4.78132 69.5201 4.57206C69.5204 4.3628 69.5649 4.15593 69.6506 3.96486C69.7362 3.77379 69.8613 3.60277 70.0175 3.46287C70.341 3.16587 70.7646 3.00069 71.2045 3.00006C71.6445 2.99944 72.0686 3.16341 72.3929 3.4595C72.5484 3.59985 72.6727 3.7711 72.7578 3.96221C72.8429 4.15331 72.8869 4.36005 72.8869 4.5691C72.8869 4.77815 72.8429 4.98488 72.7578 5.17599C72.6727 5.3671 72.5484 5.53834 72.3929 5.6787C72.0734 5.98364 71.6456 6.15007 71.2032 6.14157ZM69.6368 18.7814V7.58753H72.7533V18.7814H69.6368Z" fill="white"/>
<path d="M75.2431 18.7814V7.58752H78.2146V9.56247H78.3467C78.5603 8.93382 78.9707 8.38991 79.5175 8.01057C80.0644 7.63137 80.7193 7.44177 81.4822 7.44177C82.2528 7.44177 82.909 7.6325 83.451 8.01395C83.9865 8.38612 84.3709 8.93645 84.535 9.56584H84.6522C84.8809 8.92597 85.3209 8.38237 85.9002 8.02407C86.5032 7.63812 87.2168 7.44492 88.0411 7.44447C89.0903 7.44447 89.9431 7.77622 90.5994 8.43971C91.2556 9.1032 91.5838 10.0424 91.5838 11.2574V18.7814H88.4693V11.864C88.4693 11.2419 88.3033 10.7754 87.9713 10.4646C87.6394 10.1538 87.2245 9.99812 86.7268 9.99767C86.1608 9.99767 85.7193 10.1763 85.4022 10.5334C85.0852 10.8906 84.9271 11.3609 84.928 11.9443V18.7814H81.9036V11.7985C81.9036 11.2493 81.7455 10.8119 81.4294 10.4862C81.1132 10.1605 80.6997 9.99767 80.1889 9.99767C79.8594 9.993 79.5355 10.083 79.2559 10.2568C78.9777 10.4344 78.7527 10.6836 78.6049 10.9781C78.4374 11.3142 78.3544 11.6858 78.363 12.061V18.7814H75.2431Z" fill="white"/>
<path d="M95.6054 6.14157C95.1637 6.15042 94.7362 5.98558 94.4157 5.68275C94.2597 5.54261 94.1349 5.3714 94.0495 5.1802C93.9641 4.989 93.92 4.78207 93.92 4.57281C93.92 4.36355 93.9641 4.15662 94.0495 3.96542C94.1349 3.77422 94.2597 3.60301 94.4157 3.46287C94.7391 3.16587 95.1628 3.00069 95.6027 3.00006C96.0426 2.99944 96.4668 3.16341 96.791 3.4595C96.9466 3.59985 97.0709 3.7711 97.156 3.96221C97.2411 4.15331 97.285 4.36005 97.285 4.5691C97.285 4.77815 97.2411 4.98488 97.156 5.17599C97.0709 5.3671 96.9466 5.53834 96.791 5.6787C96.4726 5.98276 96.0465 6.14914 95.6054 6.14157ZM94.039 18.7814V7.58753H97.1555V18.7814H94.039Z" fill="white"/>
<path d="M105.625 7.58751V9.92007H98.8547V7.58751H105.625ZM100.392 4.90274H103.508V15.3409C103.508 15.6279 103.552 15.8503 103.64 16.0082C103.72 16.1589 103.851 16.2763 104.01 16.3395C104.186 16.4061 104.374 16.4384 104.562 16.4346C104.709 16.4345 104.857 16.421 105.002 16.3942C105.148 16.3678 105.26 16.3469 105.34 16.3321L105.831 18.6431C105.675 18.6916 105.456 18.7488 105.172 18.8144C104.833 18.8866 104.488 18.9268 104.141 18.9345C103.389 18.9638 102.731 18.8641 102.168 18.6356C101.628 18.428 101.168 18.0564 100.853 17.5736C100.54 17.0923 100.387 16.485 100.392 15.7518V4.90274Z" fill="white"/>
<path d="M111.004 3.85287V18.7814H107.888V3.85287H111.004Z" fill="white"/>
<path d="M118.616 19C117.459 19 116.466 18.7656 115.635 18.2969C114.81 17.8352 114.142 17.1401 113.714 16.2997C113.265 15.4365 113.041 14.4147 113.041 13.2344C113.041 12.0828 113.265 11.0721 113.714 10.2021C114.138 9.3579 114.796 8.65226 115.611 8.16847C116.428 7.68267 117.388 7.43954 118.491 7.43909C119.198 7.43232 119.901 7.55113 120.567 7.78995C121.197 8.0193 121.771 8.38103 122.249 8.85063C122.75 9.35317 123.134 9.95922 123.373 10.6259C123.642 11.3379 123.776 12.1701 123.776 13.1224V13.9752H114.283V12.0536H120.841C120.849 11.6389 120.748 11.2293 120.548 10.8654C120.358 10.5258 120.079 10.2445 119.739 10.0523C119.374 9.85046 118.961 9.74872 118.543 9.75748C118.103 9.74978 117.67 9.86276 117.29 10.084C116.934 10.2928 116.64 10.592 116.437 10.9511C116.231 11.3199 116.123 11.7352 116.123 12.1575V13.9874C116.123 14.5411 116.227 15.0197 116.434 15.4232C116.629 15.8138 116.935 16.1385 117.315 16.3564C117.695 16.575 118.147 16.6843 118.67 16.6843C118.992 16.6876 119.312 16.6384 119.618 16.5386C119.894 16.4486 120.146 16.2993 120.357 16.1013C120.566 15.9016 120.726 15.6572 120.825 15.3868L123.71 15.5764C123.574 16.2454 123.264 16.8674 122.812 17.3806C122.335 17.911 121.738 18.3206 121.071 18.5756C120.361 18.859 119.543 19.0005 118.616 19Z" fill="white"/>
<path d="M135.165 10.7777L132.31 10.9531C132.261 10.7107 132.153 10.4841 131.995 10.2932C131.824 10.0889 131.607 9.92722 131.362 9.82091C131.068 9.69493 130.749 9.63393 130.429 9.6421C129.946 9.6421 129.539 9.74286 129.209 9.94439C128.88 10.1459 128.714 10.4145 128.712 10.75C128.711 10.8799 128.739 11.0084 128.795 11.1258C128.851 11.2432 128.933 11.3465 129.034 11.4281C129.248 11.613 129.616 11.7612 130.139 11.8728L132.172 12.2776C133.264 12.5025 134.079 12.8624 134.616 13.3572C135.153 13.852 135.421 14.5031 135.421 15.3106C135.433 16.0092 135.205 16.6909 134.774 17.2423C134.342 17.7961 133.751 18.2272 133.002 18.5358C132.253 18.8444 131.391 18.9987 130.415 18.9987C128.927 18.9987 127.742 18.689 126.861 18.0695C125.98 17.4501 125.464 16.6058 125.314 15.5366L128.38 15.376C128.473 15.8281 128.697 16.172 129.054 16.4077C129.41 16.6434 129.866 16.7612 130.422 16.7612C130.969 16.7612 131.41 16.6555 131.743 16.4441C132.077 16.2327 132.247 15.9592 132.252 15.6236C132.251 15.4878 132.218 15.3541 132.156 15.2333C132.094 15.1125 132.004 15.0079 131.894 14.928C131.659 14.7481 131.298 14.6084 130.81 14.509L128.863 14.1223C127.765 13.9037 126.949 13.5248 126.414 12.9854C125.879 12.4461 125.612 11.7583 125.613 10.9221C125.613 10.2024 125.809 9.58295 126.202 9.06386C126.595 8.54476 127.149 8.14374 127.863 7.8608C128.578 7.57876 129.416 7.43774 130.377 7.43774C131.798 7.43774 132.916 7.73665 133.734 8.33447C134.551 8.93228 135.028 9.74669 135.165 10.7777Z" fill="white"/>
<path d="M146.743 10.7777L143.889 10.9531C143.84 10.7106 143.732 10.4838 143.574 10.2932C143.403 10.0889 143.186 9.92722 142.941 9.8209C142.647 9.69504 142.328 9.63405 142.008 9.6421C141.524 9.6421 141.118 9.74286 140.789 9.94438C140.459 10.1459 140.294 10.4144 140.291 10.75C140.29 10.8799 140.319 11.0083 140.374 11.1257C140.43 11.2431 140.512 11.3465 140.613 11.4281C140.828 11.613 141.196 11.7612 141.718 11.8728L143.751 12.2776C144.844 12.5025 145.659 12.8624 146.195 13.3572C146.732 13.852 147 14.5031 147 15.3106C147.012 16.0093 146.783 16.691 146.352 17.2423C145.92 17.796 145.33 18.2272 144.581 18.5358C143.832 18.8444 142.97 18.9987 141.994 18.9987C140.503 18.9987 139.319 18.689 138.44 18.0695C137.562 17.4501 137.046 16.6058 136.892 15.5366L139.959 15.376C139.995 15.5845 140.073 15.7836 140.189 15.9611C140.304 16.1385 140.455 16.2905 140.632 16.4077C140.989 16.6434 141.445 16.7612 142.001 16.7612C142.547 16.7612 142.988 16.6555 143.323 16.4441C143.657 16.2327 143.827 15.9592 143.831 15.6236C143.83 15.4878 143.797 15.3541 143.735 15.2332C143.673 15.1124 143.583 15.0078 143.472 14.928C143.238 14.748 142.876 14.6084 142.388 14.509L140.442 14.1223C139.344 13.9042 138.528 13.5252 137.993 12.9854C137.459 12.4456 137.192 11.7578 137.192 10.9221C137.192 10.2024 137.388 9.58295 137.781 9.06385C138.174 8.54475 138.729 8.14419 139.444 7.86215C140.159 7.58011 140.998 7.43909 141.959 7.43909C143.379 7.43909 144.497 7.73799 145.314 8.33581C146.131 8.93363 146.608 9.74758 146.743 10.7777Z" fill="white"/>
</g>
<defs>
<linearGradient id="paint0_linear_1_5303" x1="24.2326" y1="0.503785" x2="34.2889" y2="22.2458" gradientUnits="userSpaceOnUse">
<stop stop-color="#0070AD"/>
<stop offset="1" stop-color="#FA5CED"/>
</linearGradient>
<linearGradient id="paint1_linear_1_5303" x1="21.5718" y1="1.73482" x2="31.6275" y2="23.4769" gradientUnits="userSpaceOnUse">
<stop stop-color="#0070AD"/>
<stop offset="1" stop-color="#FA5CED"/>
</linearGradient>
<linearGradient id="paint2_linear_1_5303" x1="28.517" y1="-2.43567" x2="14.1822" y2="17.4131" gradientUnits="userSpaceOnUse">
<stop stop-color="#FA5C98"/>
<stop offset="1" stop-color="#8E44AD"/>
</linearGradient>
<linearGradient id="paint3_linear_1_5303" x1="12.6478" y1="0.202488" x2="7.23588" y2="22.0405" gradientUnits="userSpaceOnUse">
<stop stop-color="#F1C40F"/>
<stop offset="1" stop-color="#DA3C78"/>
</linearGradient>
<clipPath id="clip0_1_5303">
<rect width="38" height="22" fill="white"/>
</clipPath>
<clipPath id="clip1_1_5303">
<rect width="89" height="16" fill="white" transform="translate(58 3)"/>
</clipPath>
</defs>
</svg>
