<svg xmlns="http://www.w3.org/2000/svg" width="38" height="22" viewBox="0 0 38 22" fill="none" >
<g clip-path="url(#clip0_1_5303)">
<mask id="mask0_1_5303" style="mask-type:luminance" maskUnits="userSpaceOnUse" x="20" y="1" width="18" height="21">
<path d="M27.155 5.63748C28.5947 5.65257 29.9703 6.23692 30.9831 7.26358C31.9959 8.29025 32.5639 9.67631 32.5639 11.1207C32.5639 12.5651 31.9959 13.9512 30.9831 14.9778C29.9703 16.0045 28.5947 16.5888 27.155 16.6039C23.4922 16.6039 23.2169 15.8965 20.113 19.3936C22.0743 21.0789 24.5726 22.0036 27.155 22C33.1442 22 38 17.1287 38 11.1204C38.0006 9.17798 37.4826 7.27084 36.5 5.59716C35.5173 3.92347 34.1058 2.54432 32.4121 1.60301C22.3063 0.00179759 21.1061 8.82552 22.2245 9.09448C22.8061 7.14584 24.0051 5.63748 27.155 5.63748Z" fill="white"/>
</mask>
<g mask="url(#mask0_1_5303)">
<path d="M37.9994 0H20.113V22H37.9994V0Z" fill="url(#paint0_linear_1_5303)"/>
</g>
<mask id="mask1_1_5303" style="mask-type:luminance" maskUnits="userSpaceOnUse" x="20" y="10" width="16" height="11">
<path d="M32.5249 10.0955C32.6746 10.8882 32.6482 11.7042 32.4476 12.4855C32.247 13.2667 31.8772 13.994 31.3644 14.6155C30.8516 15.237 30.2085 15.7374 29.4809 16.0811C28.7534 16.4248 27.9592 16.6033 27.155 16.6039C23.5758 16.6039 23.2306 15.9294 20.3196 19.1624L21.0063 20.0825C21.0189 20.0825 33.3221 20.8049 34.9994 13.3602C35.43 11.4481 34.3557 10.4801 32.5243 10.0949" fill="white"/>
</mask>
<g mask="url(#mask1_1_5303)">
<path d="M35.4305 10.0955H20.3196V20.8062H35.4305V10.0955Z" fill="url(#paint1_linear_1_5303)"/>
</g>
<mask id="mask2_1_5303" style="mask-type:luminance" maskUnits="userSpaceOnUse" x="6" y="0" width="27" height="19">
<path d="M16.7017 8.2151C15.6268 12.1088 16.5858 16.6015 10.8444 16.6015C8.90198 16.6015 7.08254 15.5646 6.11459 14.0329C7.09209 16.8957 10.4408 20.6755 19.919 17.0784C20.7679 15.7771 21.329 14.3084 21.5647 12.7713C21.7528 11.5373 21.8817 10.2386 22.2245 9.09208C22.2245 9.09208 24.0875 0.426501 32.4121 1.6006C30.9774 0.80431 29.3814 0.344516 27.7441 0.25576C26.1068 0.167004 24.4708 0.451592 22.9589 1.08815C21.447 1.7247 20.0985 2.69667 19.0148 3.93105C17.931 5.16543 17.1402 6.63012 16.7017 8.2151Z" fill="white"/>
</mask>
<g mask="url(#mask2_1_5303)">
<path d="M32.4121 0.241394H6.11459V20.6779H32.4121V0.241394Z" fill="url(#paint2_linear_1_5303)"/>
</g>
<mask id="mask3_1_5303" style="mask-type:luminance" maskUnits="userSpaceOnUse" x="0" y="0" width="20" height="22">
<path d="M19.919 17.0808C14.9879 18.4963 6.8807 18.7419 5.50014 12.2748C5.32948 11.4751 5.33913 10.6472 5.52837 9.85177C5.71761 9.0563 6.08167 8.31331 6.59392 7.67713C7.10617 7.04094 7.75368 6.52764 8.48909 6.17475C9.2245 5.82186 10.0292 5.63831 10.8444 5.6375C14.8022 5.6375 13.5393 7.74549 17.8864 2.84782C15.9251 1.16243 13.4269 0.237765 10.8444 0.241435C4.85584 0.241435 0 5.11275 0 11.1204C0 17.1281 4.85584 22 10.8444 22C12.6451 21.9986 14.4173 21.5483 16.0015 20.6897C17.5858 19.831 18.9326 18.5909 19.9208 17.0808" fill="white"/>
</mask>
<g mask="url(#mask3_1_5303)">
<path d="M19.919 0.241425H0V22H19.919V0.241425Z" fill="url(#paint3_linear_1_5303)"/>
</g>
<path fill-rule="evenodd" clip-rule="evenodd" d="M2.60766 12.7899C1.0814 4.50713 11.0869 -0.220414 17.8864 2.84602C15.9249 1.16129 13.4266 0.237268 10.8444 0.241439C4.85584 0.241439 0 5.11276 0 11.1204C0 17.1281 4.85584 22 10.8444 22C12.3615 22.0022 13.862 21.6838 15.2482 21.0655C6.43942 21.425 3.31883 16.6483 2.60766 12.7899Z" fill="#F1C30F"/>
<path fill-rule="evenodd" clip-rule="evenodd" d="M13.9507 17.899C18.8328 17.7475 18.5653 10.1056 20.1572 6.65582C21.5294 3.68403 24.8405 -0.386385 32.4121 1.603C30.9775 0.806678 29.3817 0.346796 27.7446 0.257891C26.1074 0.168986 24.4715 0.453367 22.9596 1.08968C21.4477 1.72599 20.0992 2.69769 19.0154 3.93179C17.9315 5.16589 17.1405 6.63033 16.7017 8.2151C15.6268 12.1088 16.5858 16.6015 10.8444 16.6015C8.90198 16.6015 7.08254 15.5646 6.11459 14.0329C7.55606 16.8555 10.7059 17.8421 13.9507 17.8966" fill="#FA5C98"/>
<path fill-rule="evenodd" clip-rule="evenodd" d="M27.155 5.63746C28.5947 5.65256 29.9703 6.2369 30.9831 7.26357C31.9959 8.29023 32.5639 9.6763 32.5639 11.1207C32.5639 12.5651 31.9959 13.9511 30.9831 14.9778C29.9703 16.0045 28.5947 16.5888 27.155 16.6039C23.4922 16.6039 23.2169 15.8965 20.113 19.3936C27.057 20.6048 37.342 17.7049 34.9111 8.83089C33.9694 5.39306 30.4535 3.16646 25.8168 3.21798C23.0055 5.46075 22.2245 9.09447 22.2245 9.09447C22.8061 7.14582 24.0051 5.63746 27.155 5.63746Z" fill="#3E6BBD"/>
<path fill-rule="evenodd" clip-rule="evenodd" d="M27.7545 3.33539C29.7674 1.71801 32.4121 1.60299 32.4121 1.60299C29.4784 1.18906 27.3472 1.99775 25.8168 3.22037C23.0055 5.46314 22.2245 9.09686 22.2245 9.09686C22.7279 7.40999 23.694 6.05319 25.9864 5.71893C26.3575 4.78276 26.9672 3.96082 27.7545 3.33539Z" fill="#004790"/>
<path fill-rule="evenodd" clip-rule="evenodd" d="M16.2711 17.0424C15.2148 16.9316 14.0701 16.7136 13.0466 16.305C12.4495 16.4979 11.7264 16.6045 10.8456 16.6045C8.90318 16.6045 7.08373 15.5676 6.11578 14.0359C7.55725 16.8585 10.7071 17.8451 13.9519 17.8996C16.0466 17.9344 18.1807 17.5804 19.9202 17.0814C18.7056 17.1803 17.4846 17.1675 16.2723 17.043" fill="#5E147D"/>
<path fill-rule="evenodd" clip-rule="evenodd" d="M17.1973 2.30147C17.1973 2.30147 15.4429 1.37956 12.4955 1.63834C10.0831 1.8504 5.80765 3.38991 4.74118 5.43979C7.85281 2.11757 13.5285 0.881169 17.8863 2.84779C17.6634 2.6569 17.4329 2.47479 17.1949 2.30147" fill="#FDE3A7"/>
<path fill-rule="evenodd" clip-rule="evenodd" d="M31.5003 1.15014C29.6593 0.816475 27.8536 0.741596 26.0533 1.26994C25.3743 1.46882 24.4715 1.81925 23.731 2.4081C25.6908 1.1729 28.4752 0.569075 32.4121 1.6036C32.1167 1.43907 31.8128 1.28811 31.5003 1.15073" fill="#FFBCD8"/>
<path fill-rule="evenodd" clip-rule="evenodd" d="M22.1009 20.1011C25.1528 20.0753 33.6254 19.4481 34.9988 13.3608C33.4911 18.5454 26.0945 20.2802 20.5412 19.4631C20.3967 19.4415 20.2528 19.4182 20.1107 19.3936C20.3971 19.6386 20.6961 19.8686 21.0063 20.0825C21.0063 20.0825 21.4196 20.1065 22.1003 20.1005" fill="#FFBCD8"/>
</g>

<defs>
<linearGradient id="paint0_linear_1_5303" x1="24.2326" y1="0.503785" x2="34.2889" y2="22.2458" gradientUnits="userSpaceOnUse">
<stop stop-color="#0070AD"/>
<stop offset="1" stop-color="#FA5CED"/>
</linearGradient>
<linearGradient id="paint1_linear_1_5303" x1="21.5718" y1="1.73482" x2="31.6275" y2="23.4769" gradientUnits="userSpaceOnUse">
<stop stop-color="#0070AD"/>
<stop offset="1" stop-color="#FA5CED"/>
</linearGradient>
<linearGradient id="paint2_linear_1_5303" x1="28.517" y1="-2.43567" x2="14.1822" y2="17.4131" gradientUnits="userSpaceOnUse">
<stop stop-color="#FA5C98"/>
<stop offset="1" stop-color="#8E44AD"/>
</linearGradient>
<linearGradient id="paint3_linear_1_5303" x1="12.6478" y1="0.202488" x2="7.23588" y2="22.0405" gradientUnits="userSpaceOnUse">
<stop stop-color="#F1C40F"/>
<stop offset="1" stop-color="#DA3C78"/>
</linearGradient>
<clipPath id="clip0_1_5303">
<rect width="38" height="22" fill="white"/>
</clipPath>
<clipPath id="clip1_1_5303">
<rect width="89" height="16" fill="white" transform="translate(58 3)"/>
</clipPath>
</defs>
</svg>